# xmcd CD database file
#
# Track frame offsets:
#	150
#	12512
#	26312
#	45137
#	66812
#	82937
#	98762
#	117212
#	134687
#	156362
#	169037
#	190187
#	205637
#	222137
#
# Disc length: 4256 seconds
#
# Revision: 0
# Processed by: cddbd v1.5.1PL0 Copyright (c) Steve Scherf et al.
# Submitted via: CDex 1.51
#
DISCID=ae109e0e
DTITLE=Ragnar Grippe - Requiem
DYEAR=1996
DGENRE=New Age
TTITLE0=Requiem aternam I
TTITLE1=Lux aterna
TTITLE2=Sanctus
TTITLE3=Confutatis maledictis
TTITLE4=Dies I
TTITLE5=Dies ira I
TTITLE6=Requiem
TTITLE7=Dies II
TTITLE8=Libera me
TTITLE9=Dies ira II
TTITLE10=Agnus Dei
TTITLE11=Domine Jesu
TTITLE12=Requiem aternam II
TTITLE13=Shifting Spirits
EXTD=YEAR: 1996
EXTT0=
EXTT1=
EXTT2=
EXTT3=
EXTT4=
EXTT5=
EXTT6=
EXTT7=
EXTT8=
EXTT9=
EXTT10=
EXTT11=
EXTT12=
EXTT13=
PLAYORDER=
